<?xml version="1.0" encoding="utf-8"?>
<!-- Generator: Adobe Illustrator 22.0.1, SVG Export Plug-In . SVG Version: 6.00 Build 0)  -->
<svg version="1.0" xmlns="http://www.w3.org/2000/svg" xmlns:xlink="http://www.w3.org/1999/xlink" x="0px" y="0px"
	 viewBox="0 0 800 400" style="enable-background:new 0 0 800 400;" xml:space="preserve">
<style type="text/css">
	.st0{fill:#99E2FF;}
	.st1{fill:#FFFFFF;}
</style>
<g id="Layer_2">
</g>
<g id="Layer_5">
	<path class="st0" d="M1137.8-155.2c0,36.5,29.6,66.1,66.1,66.1v-132.2C1167.4-221.3,1137.8-191.7,1137.8-155.2z"/>
	<circle class="st0" cx="1103.5" cy="-181.7" r="28.9"/>
	
		<ellipse transform="matrix(0.9849 -0.1731 0.1731 0.9849 36.5765 160.2926)" class="st0" cx="937.2" cy="-129.5" rx="25.7" ry="25.7"/>
	
		<ellipse transform="matrix(0.9755 -0.2201 0.2201 0.9755 47.1516 204.2419)" class="st0" cx="940.2" cy="-109.5" rx="42.5" ry="42.5"/>
	
		<ellipse transform="matrix(0.9722 -0.234 0.234 0.9722 64.4733 256.3652)" class="st0" cx="1112.6" cy="-143.5" rx="42.5" ry="42.5"/>
	
		<ellipse transform="matrix(0.9722 -0.234 0.234 0.9722 54.2334 235.2697)" class="st0" cx="1018.6" cy="-110.9" rx="42.5" ry="42.5"/>
	<circle class="st0" cx="1166" cy="-157.3" r="35.1"/>
	
		<ellipse transform="matrix(0.4164 -0.9092 0.9092 0.4164 759.4279 871.7263)" class="st0" cx="1058.7" cy="-155.7" rx="37.3" ry="37.3"/>
	<circle class="st0" cx="1134.9" cy="-176" r="18.5"/>
	<circle class="st0" cx="881.8" cy="-122.6" r="30.5"/>
	
		<ellipse transform="matrix(0.974 -0.2265 0.2265 0.974 58.5703 217.5445)" class="st0" cx="977.2" cy="-146.4" rx="33.3" ry="33.3"/>
	
		<ellipse transform="matrix(0.6577 -0.7533 0.7533 0.6577 457.179 711.72)" class="st0" cx="1011.7" cy="-147.2" rx="23.1" ry="23.1"/>
	<circle class="st0" cx="904.6" cy="-143.5" r="15.6"/>
</g>
<g id="Layer_4">
</g>
<g id="Layer_1">
	<polygon class="st1" points="800,290.8 654.8,287.8 549,322.6 413.3,314.6 296.6,319.6 176.1,326.5 77.3,310 0,293.9 0,400 
		800,400 	"/>
	<circle class="st1" cx="63.7" cy="283.7" r="26"/>
	<path class="st1" d="M66.1,328.2c0-36.5-29.6-66.1-66.1-66.1v132.2C36.5,394.3,66.1,364.7,66.1,328.2z"/>
	<path class="st1" d="M733.9,328.2c0,36.5,29.6,66.1,66.1,66.1V262.1C763.5,262.1,733.9,291.7,733.9,328.2z"/>
	<circle class="st1" cx="185.8" cy="312.3" r="50.3"/>
	<circle class="st1" cx="103.7" cy="304.7" r="40"/>
	
		<ellipse transform="matrix(0.9727 -0.2321 0.2321 0.9727 -63.7213 40.8729)" class="st1" cx="141.9" cy="291.3" rx="23.3" ry="23.3"/>
	
		<ellipse transform="matrix(0.7071 -0.7071 0.7071 0.7071 -139.7599 289.5532)" class="st1" cx="279.6" cy="313.5" rx="17.6" ry="17.6"/>
	
		<ellipse transform="matrix(0.9738 -0.2275 0.2275 0.9738 -65.2035 80.7328)" class="st1" cx="317.7" cy="323.3" rx="23.4" ry="23.4"/>
	<circle class="st1" cx="399" cy="316.7" r="28.9"/>
	<circle class="st1" cx="677" cy="281.8" r="28.9"/>
	<circle class="st1" cx="508.4" cy="327" r="28.9"/>
	
		<ellipse transform="matrix(0.9724 -0.2332 0.2332 0.9724 -67.6339 63.9692)" class="st1" cx="236.7" cy="318" rx="32.6" ry="32.6"/>
	<ellipse transform="matrix(0.3922 -0.9199 0.9199 0.3922 -74.2437 523.4463)" class="st1" cx="359" cy="317.9" rx="40" ry="40"/>
	
		<ellipse transform="matrix(0.9224 -0.3863 0.3863 0.9224 -53.9288 305.7896)" class="st1" cx="733.9" cy="287.1" rx="30.8" ry="30.8"/>
	
		<ellipse transform="matrix(0.9572 -0.2893 0.2893 0.9572 -56.8232 198.0052)" class="st1" cx="641.3" cy="291.2" rx="43.1" ry="43.1"/>
	
		<ellipse transform="matrix(0.7071 -0.7071 0.7071 0.7071 -91.7759 403.0407)" class="st1" cx="440.6" cy="312.3" rx="30.5" ry="30.5"/>
	
		<ellipse transform="matrix(0.5573 -0.8303 0.8303 0.5573 -17.9832 610.3292)" class="st1" cx="563.4" cy="322" rx="23.3" ry="23.3"/>
	<circle class="st1" cx="536.3" cy="316.7" r="12.8"/>
	<circle class="st1" cx="590.8" cy="293.9" r="27.6"/>
	<circle class="st1" cx="475.7" cy="314.5" r="15.6"/>
	
		<ellipse transform="matrix(0.9735 -0.2286 0.2286 0.9735 -43.3029 180.7266)" class="st1" cx="758.4" cy="277.3" rx="11.6" ry="11.6"/>
</g>
</svg>
